<?xml version="1.0" encoding="utf-8"?>
<!-- Generator: Adobe Illustrator 19.0.0, SVG Export Plug-In . SVG Version: 6.00 Build 0)  -->
<svg version="1.1" id="Layer_1" xmlns="http://www.w3.org/2000/svg" xmlns:xlink="http://www.w3.org/1999/xlink" x="0px" y="0px"
	 viewBox="0 0 96 96" style="enable-background:new 0 0 96 96;" xml:space="preserve">
<g id="XMLID_1_">
	<path id="XMLID_5_" d="M48,25.5l23,45.9H25L48,25.5L48,25.5z M48,20.5c-1.2,0-2.4,0.8-3.3,2.4L21.3,69.7c-1.8,3.2-0.3,5.8,3.4,5.8
		h46.7c3.7,0,5.2-2.6,3.4-5.8L51.3,22.9C50.4,21.3,49.2,20.5,48,20.5L48,20.5z"/>
	<circle id="XMLID_6_" cx="48" cy="65.2" r="3.4"/>
	<path id="XMLID_7_" d="M48,58.3c-1.9,0-3.4-1.5-3.4-3.4V44.6c0-1.9,1.5-3.4,3.4-3.4s3.4,1.5,3.4,3.4v10.3
		C51.4,56.8,49.9,58.3,48,58.3z"/>
</g>
</svg>
