<?xml version="1.0" encoding="utf-8"?>
<!-- Generator: Adobe Illustrator 19.0.0, SVG Export Plug-In . SVG Version: 6.00 Build 0)  -->
<svg version="1.1" id="Layer_1" xmlns="http://www.w3.org/2000/svg" xmlns:xlink="http://www.w3.org/1999/xlink" x="0px" y="0px"
	 viewBox="0 0 96 96" style="enable-background:new 0 0 96 96;" xml:space="preserve">
<style type="text/css">
	.st0{fill:#333333;}
</style>
<g id="XMLID_2_">
	<path id="XMLID_4_" class="st0" d="M75.5,42.1c0,0.5-0.3,1-0.9,1.6l-12,11.7l2.8,16.5c0,0.2,0,0.4,0,0.7c0,0.5-0.1,0.9-0.3,1.2
		c-0.2,0.3-0.6,0.5-1,0.5c-0.4,0-0.9-0.1-1.3-0.4L48,66l-14.8,7.8c-0.5,0.3-0.9,0.4-1.3,0.4c-0.5,0-0.8-0.2-1-0.5
		c-0.2-0.3-0.3-0.7-0.3-1.2c0-0.1,0-0.4,0.1-0.7l2.8-16.5l-12-11.7c-0.6-0.6-0.8-1.1-0.8-1.6c0-0.8,0.6-1.3,1.9-1.5l16.6-2.4l7.4-15
		c0.4-0.9,1-1.4,1.6-1.4s1.2,0.5,1.6,1.4l7.4,15l16.6,2.4C74.9,40.8,75.5,41.3,75.5,42.1z"/>
</g>
</svg>
